# xmcd CD database file
#
# Track frame offsets:
#	150
#	20315
#	38900
#	67335
#	92732
#	121332
#	136352
#	156585
#	177062
#	196210
#	217217
#	238762
#	252040
#
# Disc length: 3483 seconds
#
# Revision: 0
# Processed by: cddbd v1.4PL0 Copyright (c) Steve Scherf et al.
# Submitted via: CDex 1.50beta9
#
DISCID=bd0d990d
DTITLE=Nick Kepics - Piece Offerings
DYEAR=2002
DGENRE=Jazz
TTITLE0=Dinner Set Groove
TTITLE1=Get Out of the Blues
TTITLE2=Dee (Inst.)
TTITLE3=Lac Fantome
TTITLE4=Piece Offering
TTITLE5=Song for Suzie
TTITLE6=Walt's Blues
TTITLE7=What Were You Thinking
TTITLE8=The Hobgoblin's Ball
TTITLE9=Uma Cobra Louca!
TTITLE10=Headed Back Home
TTITLE11=Felonius Punk
TTITLE12=Dee (Voc.)
EXTD=YEAR: 2002
EXTT0=
EXTT1=
EXTT2=
EXTT3=
EXTT4=
EXTT5=
EXTT6=
EXTT7=
EXTT8=
EXTT9=
EXTT10=
EXTT11=
EXTT12=
PLAYORDER=
